<?xml version="1.0" standalone="no"?>
<!DOCTYPE svg PUBLIC "-//W3C//DTD SVG 20010904//EN"
 "http://www.w3.org/TR/2001/REC-SVG-20010904/DTD/svg10.dtd">
<svg version="1.0" xmlns="http://www.w3.org/2000/svg"
 width="300.000000pt" height="91.000000pt" viewBox="0 0 300.000000 91.000000"
 preserveAspectRatio="xMidYMid meet">
<metadata>
Created by potrace 1.10, written by Peter Selinger 2001-2011
</metadata>
<g transform="translate(0.000000,91.000000) scale(0.100000,-0.100000)"
fill="#000000" stroke="none">
<path d="M370 897 c-60 -21 -76 -91 -31 -136 10 -10 43 -24 72 -31 30 -7 64
-19 77 -26 49 -32 10 -94 -59 -94 -34 0 -47 6 -73 33 -17 19 -37 32 -44 29
-36 -12 17 -76 77 -92 80 -21 161 24 161 90 0 40 -35 78 -83 90 -82 21 -105
31 -111 47 -10 26 3 50 33 63 36 15 76 4 101 -27 14 -18 23 -22 36 -15 14 8
13 13 -12 40 -34 36 -91 48 -144 29z"/>
<path d="M1118 903 l-98 -4 0 -159 c0 -153 1 -160 20 -160 18 0 20 7 20 78 l0
77 65 -3 c61 -4 65 -2 65 18 0 20 -4 22 -65 18 l-65 -3 0 53 0 52 80 0 c73 0
80 2 80 20 0 11 -1 19 -2 18 -2 -1 -47 -4 -100 -5z"/>
<path d="M0 890 c0 -5 5 -10 10 -10 6 0 10 -24 10 -53 0 -29 5 -58 11 -64 8
-8 8 -13 0 -17 -6 -4 -11 -36 -11 -71 0 -35 -5 -67 -10 -70 -17 -10 -11 -25
10 -25 18 0 20 7 20 78 l0 77 75 0 75 0 0 -77 c0 -74 1 -78 23 -78 l22 0 -3
160 c-3 151 -4 160 -22 160 -18 0 -20 -7 -20 -65 l0 -65 -75 0 -75 0 0 65 c0
58 -2 65 -20 65 -11 0 -20 -4 -20 -10z"/>
<path d="M740 740 l0 -160 26 0 c25 0 26 1 22 65 l-3 65 57 0 c50 0 62 4 90
29 28 25 33 36 32 72 -1 33 -8 48 -28 66 -24 20 -38 23 -112 23 l-84 0 0 -160z
m156 122 c23 -15 34 -50 25 -75 -13 -33 -17 -35 -80 -38 l-53 -3 -2 62 -1 62
50 0 c28 0 55 -4 61 -8z"/>
<path d="M1590 885 c0 -13 80 -15 658 -15 l657 -1 -130 -54 -130 -54 -527 -1
c-525 0 -528 0 -528 -20 0 -21 2 -21 480 -18 263 2 476 0 472 -3 -4 -3 -66
-29 -137 -58 l-131 -52 -342 3 c-320 3 -342 2 -342 -14 0 -17 21 -18 308 -18
l307 0 -308 -127 c-232 -96 -307 -131 -304 -143 2 -8 10 -14 18 -12 8 2 166
66 352 142 l338 140 127 0 127 0 -480 -199 c-264 -109 -480 -204 -479 -210 1
-6 2 -15 3 -20 0 -5 13 -3 29 4 15 7 251 106 526 219 l499 206 126 -1 c121 -1
125 -1 91 -15 -19 -9 -315 -131 -657 -272 -343 -141 -623 -262 -623 -269 0 -6
3 -14 8 -17 4 -2 320 125 702 283 485 201 696 292 698 304 3 14 -12 17 -130
19 l-133 3 133 54 c102 42 132 58 132 73 0 17 -11 18 -132 18 l-133 0 130 53
c223 91 249 87 -569 87 -621 0 -706 -2 -706 -15z m1000 -149 c0 -11 -19 -15
-25 -6 -3 5 1 10 9 10 9 0 16 -2 16 -4z m305 -14 c-6 -5 -68 -32 -138 -60
l-128 -52 -121 0 c-67 0 -119 3 -115 6 3 3 54 26 114 52 104 44 113 46 238 52
72 3 137 7 145 8 8 1 10 -1 5 -6z m-658 -138 c-3 -3 -12 -4 -19 -1 -8 3 -5 6
6 6 11 1 17 -2 13 -5z m356 -1 c-7 -2 -19 -2 -25 0 -7 3 -2 5 12 5 14 0 19 -2
13 -5z m347 3 c0 -3 -4 -8 -10 -11 -5 -3 -10 -1 -10 4 0 6 5 11 10 11 6 0 10
-2 10 -4z"/>
</g>
</svg>
