<?xml version="1.0" standalone="no"?>
<!DOCTYPE svg PUBLIC "-//W3C//DTD SVG 20010904//EN"
 "http://www.w3.org/TR/2001/REC-SVG-20010904/DTD/svg10.dtd">
<svg version="1.0" xmlns="http://www.w3.org/2000/svg"
 width="300.000000pt" height="84.000000pt" viewBox="0 0 300.000000 84.000000"
 preserveAspectRatio="xMidYMid meet">
<metadata>
Created by potrace 1.10, written by Peter Selinger 2001-2011
</metadata>
<g transform="translate(0.000000,84.000000) scale(0.100000,-0.100000)"
fill="#000000" stroke="none">
<path d="M50 420 l0 -250 38 0 37 0 0 90 0 90 90 4 c100 3 138 17 178 66 36
42 43 91 23 144 -32 84 -81 105 -248 106 l-118 0 0 -250z m275 206 c41 -18 67
-55 71 -104 6 -97 -53 -142 -190 -142 -102 0 -105 -3 -107 -109 -1 -45 -6 -71
-13 -71 -8 0 -10 49 -9 167 2 93 3 192 3 221 l0 52 105 0 c69 0 118 -5 140
-14z"/>
<path d="M112 608 c-7 -7 -12 -44 -12 -96 0 -69 3 -87 18 -98 20 -16 122 -18
174 -4 41 12 88 61 88 92 0 39 -33 90 -66 104 -42 17 -185 19 -202 2z m208
-37 c44 -32 39 -101 -10 -126 -19 -10 -57 -15 -110 -15 l-80 0 0 83 0 83 88
-3 c65 -2 93 -8 112 -22z"/>
<path d="M480 420 l0 -250 38 0 37 0 -3 95 -3 95 130 0 131 0 0 35 0 35 -130
0 -130 0 0 85 0 85 148 0 148 0 0 35 0 35 -183 0 -183 0 0 -250z m335 210 c-3
-5 -58 -8 -129 -7 -155 3 -156 2 -156 -105 0 -118 0 -118 130 -118 63 0 110
-4 110 -10 0 -5 -42 -8 -101 -7 -135 3 -139 0 -139 -104 0 -46 -4 -79 -10 -79
-10 0 -11 35 -11 320 0 61 0 112 1 115 0 3 70 5 156 5 98 0 153 -4 149 -10z"/>
<path d="M930 420 l0 -250 255 0 255 0 0 250 0 250 -255 0 -255 0 0 -250z
m248 225 c1 -1 1 -61 0 -133 l-3 -130 -105 132 c-58 72 -106 133 -108 136 -2
5 211 1 216 -5z m242 -43 l0 -53 -111 3 -112 3 1 48 c0 26 1 48 1 50 1 1 51 2
111 2 l110 0 0 -53z m-346 -120 l107 -132 -3 -79 -3 -79 -112 141 -113 142 0
80 c0 43 4 75 8 70 5 -6 57 -70 116 -143z m346 3 l0 -55 -112 0 -113 0 2 52
c1 29 2 54 2 56 1 1 51 2 111 2 l110 0 0 -55z m-370 -165 c51 -63 97 -121 103
-127 7 -10 -13 -13 -97 -13 l-106 0 0 132 c0 72 2 129 4 127 2 -2 45 -56 96
-119z m370 35 l0 -55 -110 0 -110 0 -1 28 c-1 15 -3 39 -5 55 l-3 27 115 0
114 0 0 -55z m0 -125 l0 -50 -113 0 -112 0 0 50 0 50 113 0 112 0 0 -50z"/>
<path d="M2220 610 c0 -38 -12 -52 -25 -30 -12 19 -63 11 -79 -12 -45 -64 12
-147 78 -113 14 8 26 10 26 4 0 -5 5 -9 10 -9 6 0 10 40 10 100 0 60 -4 100
-10 100 -5 0 -10 -18 -10 -40z m-15 -60 c27 -29 10 -74 -28 -78 -36 -4 -57 13
-57 47 0 51 50 69 85 31z"/>
<path d="M1706 627 c-12 -9 -17 -23 -14 -42 2 -24 10 -32 45 -45 52 -19 68
-34 60 -54 -7 -19 -58 -21 -89 -5 -27 14 -38 1 -14 -17 26 -19 91 -18 110 2
34 34 13 71 -53 89 -29 9 -36 16 -36 35 0 20 6 26 29 28 16 2 33 -1 39 -7 15
-15 27 -14 27 3 0 27 -72 36 -104 13z"/>
<path d="M1860 611 c0 -11 -6 -22 -12 -24 -10 -4 -10 -7 -1 -14 6 -5 13 -33
15 -63 3 -54 4 -55 36 -58 18 -2 32 1 32 7 0 6 -11 11 -25 11 -23 0 -25 3 -25
50 0 47 2 50 25 50 14 0 25 5 25 10 0 6 -11 10 -25 10 -18 0 -25 5 -25 20 0
11 -4 20 -10 20 -5 0 -10 -9 -10 -19z"/>
<path d="M2285 610 c5 -14 2 -20 -9 -20 -9 0 -16 -4 -16 -10 0 -5 6 -10 14
-10 11 0 13 -10 9 -39 -7 -49 10 -81 42 -81 14 0 25 5 25 10 0 6 -9 10 -20 10
-17 0 -20 7 -20 50 0 43 3 50 20 50 11 0 20 5 20 10 0 6 -9 10 -20 10 -13 0
-20 7 -20 20 0 11 -7 20 -16 20 -11 0 -14 -6 -9 -20z"/>
<path d="M1967 583 c-15 -15 -5 -22 23 -17 18 4 36 1 45 -6 23 -19 18 -33 -9
-26 -51 13 -97 -25 -76 -63 13 -25 44 -31 74 -15 14 7 26 9 26 3 0 -5 5 -9 10
-9 6 0 10 24 10 53 0 40 -5 58 -18 70 -18 17 -73 23 -85 10z m79 -75 c4 -6 -3
-19 -16 -30 -27 -22 -31 -22 -55 -4 -16 12 -17 16 -6 30 16 19 66 21 77 4z"/>
<path d="M1690 261 c0 -61 4 -101 10 -101 6 0 10 15 10 34 0 32 2 34 45 38 57
7 75 22 75 63 0 42 -14 53 -83 61 l-57 7 0 -102z m94 69 c18 -7 26 -17 26 -34
0 -29 -25 -46 -69 -46 -30 0 -31 1 -31 45 0 41 2 45 24 45 14 0 36 -4 50 -10z"/>
<path d="M1883 348 c-21 -34 -31 -58 -23 -58 5 0 10 -28 12 -62 2 -35 7 -62
12 -60 5 1 8 29 7 62 -2 58 -2 60 23 60 14 0 26 5 26 11 0 7 -10 9 -25 5 -17
-4 -25 -2 -25 7 0 19 20 36 36 30 8 -3 14 0 14 6 0 15 -47 14 -57 -1z"/>
<path d="M2370 258 c0 -64 4 -98 9 -92 6 5 11 31 13 58 3 56 25 79 56 60 12
-8 18 -27 20 -68 4 -74 22 -72 22 2 0 44 -5 63 -18 75 -21 19 -57 22 -67 7
-13 -21 -21 -9 -17 25 3 21 0 35 -7 35 -7 0 -11 -34 -11 -102z"/>
<path d="M2682 349 c2 -6 8 -10 13 -10 5 0 11 4 13 10 2 6 -4 11 -13 11 -9 0
-15 -5 -13 -11z"/>
<path d="M1976 289 c-19 -15 -26 -30 -26 -54 0 -36 36 -75 70 -75 34 0 70 39
70 75 0 36 -36 75 -70 75 -10 0 -29 -9 -44 -21z m78 -15 c21 -20 20 -53 -1
-76 -20 -22 -41 -23 -65 -1 -34 31 -13 93 32 93 10 0 26 -7 34 -16z"/>
<path d="M2122 238 c2 -42 7 -72 13 -72 6 1 9 16 7 34 -4 35 21 80 43 80 8 0
15 7 15 15 0 21 -16 19 -40 -5 -20 -20 -20 -20 -20 0 0 11 -5 20 -10 20 -7 0
-10 -27 -8 -72z"/>
<path d="M2220 300 c0 -5 21 -10 47 -10 l47 0 -30 -32 c-16 -18 -40 -45 -53
-60 l-24 -28 68 0 c38 0 65 3 61 7 -4 4 -27 6 -53 4 l-46 -3 52 59 c28 33 51
63 51 66 0 4 -27 7 -60 7 -33 0 -60 -4 -60 -10z"/>
<path d="M2540 288 c-29 -32 -27 -81 6 -107 15 -12 34 -21 43 -21 23 0 58 26
48 36 -4 4 -13 2 -19 -4 -17 -17 -44 -15 -62 4 -27 26 -18 34 39 34 48 0 55 2
55 20 0 28 -35 60 -65 60 -13 0 -33 -10 -45 -22z m80 -17 c15 -30 14 -31 -35
-31 -30 0 -45 4 -45 13 0 37 62 51 80 18z"/>
<path d="M2680 235 c0 -43 4 -75 10 -75 6 0 10 32 10 75 0 43 -4 75 -10 75 -6
0 -10 -32 -10 -75z"/>
<path d="M2742 238 c2 -40 7 -73 13 -73 5 0 8 18 7 41 -4 52 26 95 55 78 13
-8 19 -26 21 -63 4 -65 22 -67 22 -3 0 51 12 72 42 72 24 0 38 -31 35 -77 -1
-21 3 -40 8 -43 18 -9 18 89 0 116 -18 27 -56 32 -75 9 -12 -14 -15 -14 -30 0
-20 18 -41 19 -59 3 -11 -10 -14 -10 -18 0 -3 6 -9 12 -14 12 -6 0 -9 -31 -7
-72z"/>
</g>
</svg>
